<?xml version="1.0" encoding="UTF-8"?>
<svg xmlns="http://www.w3.org/2000/svg" xmlns:xlink="http://www.w3.org/1999/xlink" viewBox="0 0 48 48" width="48px" height="48px">
<g id="surface16392223">
<rect x="0" y="0" width="48" height="48" style="fill:rgb(100%,83.92157%,0%);fill-opacity:1;stroke:none;"/>
<path style=" stroke:none;fill-rule:nonzero;fill:rgb(0%,0%,0.392157%);fill-opacity:1;" d="M 31.753906 36.527344 C 32.722656 38.097656 33.773438 39.605469 36.003906 39.605469 C 37.878906 39.605469 38.859375 38.675781 38.859375 37.386719 C 38.859375 35.847656 37.84375 35.300781 35.785156 34.402344 L 34.652344 33.921875 C 31.394531 32.539062 29.226562 30.804688 29.226562 27.144531 C 29.226562 23.769531 31.808594 21.203125 35.84375 21.203125 C 38.71875 21.203125 40.78125 22.195312 42.273438 24.804688 L 38.753906 27.054688 C 37.980469 25.671875 37.140625 25.125 35.84375 25.125 C 34.519531 25.125 33.679688 25.960938 33.679688 27.054688 C 33.679688 28.402344 34.519531 28.949219 36.460938 29.785156 L 37.589844 30.265625 C 41.433594 31.902344 43.601562 33.574219 43.601562 37.332031 C 43.601562 41.382812 40.402344 43.601562 36.109375 43.601562 C 31.910156 43.601562 29.527344 41.492188 28.199219 38.886719 Z M 15.53125 36.640625 C 16.242188 37.910156 17.316406 38.886719 18.867188 38.886719 C 20.347656 38.886719 21.199219 38.300781 21.199219 36.023438 L 21.199219 21.199219 L 25.867188 21.199219 L 25.867188 36.742188 C 25.867188 41.457031 23.132812 43.601562 19.140625 43.601562 C 15.53125 43.601562 12.925781 41.15625 11.867188 38.886719 Z M 15.53125 36.640625 "/>
</g>
</svg>
